<?xml version="1.0" encoding="UTF-8" standalone="no"?>
<!-- Created with Inkscape (http://www.inkscape.org/) -->

<svg
   width="210mm"
   height="297mm"
   viewBox="0 0 210 297"
   version="1.1"
   id="svg1"
   xml:space="preserve"
   inkscape:version="1.4 (e7c3feb100, 2024-10-09)"
   sodipodi:docname="hue-swipe-logo.svg"
   xmlns:inkscape="http://www.inkscape.org/namespaces/inkscape"
   xmlns:sodipodi="http://sodipodi.sourceforge.net/DTD/sodipodi-0.dtd"
   xmlns="http://www.w3.org/2000/svg"
   xmlns:svg="http://www.w3.org/2000/svg"><sodipodi:namedview
     id="namedview1"
     pagecolor="#ffffff"
     bordercolor="#000000"
     borderopacity="0.25"
     inkscape:showpageshadow="2"
     inkscape:pageopacity="0.0"
     inkscape:pagecheckerboard="0"
     inkscape:deskcolor="#d1d1d1"
     inkscape:document-units="mm"
     inkscape:zoom="1.9456229"
     inkscape:cx="433.28026"
     inkscape:cy="531.96331"
     inkscape:window-width="2256"
     inkscape:window-height="1355"
     inkscape:window-x="0"
     inkscape:window-y="40"
     inkscape:window-maximized="1"
     inkscape:current-layer="layer1" /><defs
     id="defs1" /><g
     inkscape:label="Layer 1"
     inkscape:groupmode="layer"
     id="layer1"><path
       d="m 92.678109,178.68992 c 3.781302,-1.36368 5.516918,-3.98779 7.211294,-6.50867 1.652827,-2.52071 3.388447,-5.12407 6.880307,-5.12407 3.492,0 5.22762,2.60336 6.90122,5.12407 1.67361,2.52088 3.40922,5.14499 7.19037,6.50867 6.85999,2.45887 15.47605,-4.71104 18.59598,-8.03762 1.88042,-6.83921 2.97543,-14.31888 3.03744,-22.12908 -1.50848,-1.69437 -8.09965,-7.39704 -24.54669,-0.53719 -0.20665,0.0827 -4.73166,1.90088 -11.17832,1.90088 -6.44651,0 -10.971521,-1.81825 -11.15741,-1.90088 -16.447194,-6.85985 -23.059125,-1.13642 -24.54669,0.53719 0.06186,7.8102 1.136406,15.28987 3.01667,22.12908 1.632364,1.69438 10.868264,10.80639 18.595829,8.03762 z m 19.877041,-18.45133 c 0.66122,-0.66122 6.67394,-6.4879 12.58326,-6.4879 5.93009,0 11.92218,5.82668 12.60387,6.4879 0.37208,0.39255 0.59937,0.90913 0.59937,1.46696 0,0.53719 -0.22727,1.07454 -0.59937,1.44647 -0.68169,0.68184 -6.67378,6.50852 -12.60387,6.50852 -5.90932,0 -11.92204,-5.82668 -12.58326,-6.50852 -0.3924,-0.37193 -0.59922,-0.90928 -0.59922,-1.44647 0,-0.55783 0.20681,-1.07441 0.59922,-1.46696 z m -36.737251,0 c 0.661222,-0.66122 6.673791,-6.4879 12.583257,-6.4879 5.909318,0 11.922044,5.82668 12.583264,6.4879 0.39255,0.39255 0.61983,0.90913 0.61983,1.46696 0,0.53719 -0.22728,1.07454 -0.61983,1.44647 -0.66122,0.68184 -6.673946,6.50852 -12.583264,6.50852 -5.909466,0 -11.922035,-5.82668 -12.583257,-6.50852 -0.392549,-0.37193 -0.59921,-0.90928 -0.59921,-1.44647 0,-0.55783 0.206658,-1.07441 0.59921,-1.46696 z"
       id="path3"
       style="stroke-width:2.48418;fill:#ffffff" /><path
       d="m 106.39369,70.55823 h -0.10584 c -21.03437,0 -38.126453,17.118541 -38.126453,38.15292 v 15.63687 h 0.07938 l 0.05292,53.71042 h -0.02646 c 0,0 -0.132291,0.1852 0.132292,0.34395 v 0.42334 c -0.02646,0.44979 0.07937,0.89958 0.264583,1.29646 2.672292,7.88458 20.716875,10.74208 37.597298,10.74208 16.88041,0 34.925,-2.8575 37.62375,-10.74208 0.21166,-0.39688 0.3175,-0.84667 0.3175,-1.29646 v -0.42334 -0.34395 0 l 0.0529,-53.71042 h 0.0794 v -15.63687 c 0.0794,-21.007921 -16.90688,-38.100004 -37.94125,-38.15292 z m 32.54375,107.57958 c -0.0794,0.97896 -1.95792,3.04271 -8.5725,4.84188 -6.16479,1.66687 -14.73729,2.59291 -24.10354,2.59291 -9.366253,0 -17.938753,-0.92604 -24.103545,-2.59291 -6.614583,-1.79917 -8.493125,-3.86292 -8.5725,-4.84188 l -0.105833,-49.34479 c 1.455208,0.82021 3.413125,1.56104 5.265208,2.2225 v 14.36688 c 0,1.4552 1.190625,2.64583 2.645833,2.64583 1.455209,0 2.645834,-1.19063 2.645834,-2.64583 v -12.99105 c 1.852083,0.37042 3.757083,0.68792 5.767916,0.9525 0,0.0529 0.05292,0.1323 0.05292,0.18521 v 5.50334 c 0,1.45521 1.190625,2.64584 2.645833,2.64584 1.455209,0 2.645834,-1.19063 2.645834,-2.64584 v -5.13292 c 1.852083,0.15875 3.704166,0.26458 5.82083,0.34396 v 9.44562 c 0,1.45521 1.19062,2.64583 2.64583,2.64583 1.45521,0 2.64584,-1.19062 2.64584,-2.64583 v -9.33979 h 0.0529 c 9.63084,0 18.52084,-0.9525 25.0825,-2.67229 3.09563,-0.82021 5.60917,-1.77271 7.59354,-2.91042 z M 73.585355,121.54344 c 0,-2.54 9.868958,-7.51417 32.676045,-7.51417 22.80708,0 32.67604,4.97417 32.67604,7.51417 v 0.0794 0.0529 c -0.37042,2.56646 -10.31875,7.35542 -32.67604,7.35542 -22.357295,0 -32.305628,-4.7625 -32.676045,-7.32896 v -0.0529 -0.10583 z m 65.484375,-12.83229 v 5.68854 c -1.85208,-1.08479 -4.23333,-2.03729 -7.17021,-2.83104 -6.64104,-1.82563 -15.74271,-2.83105 -25.66458,-2.83105 -9.921877,0 -18.997085,1.00542 -25.638127,2.83105 -2.910416,0.79375 -5.291666,1.74625 -7.143749,2.83104 v -5.68854 c 0,-18.123962 14.710833,-32.887712 32.834786,-32.887712 18.0975,0 32.78188,14.684375 32.78188,32.781872 z"
       id="path1-3"
       style="stroke-width:0.264583;fill:#ffffff"
       sodipodi:nodetypes="csscccccccscsccccccscccsccccsssccssssccssscscccsssccscccscccsccsssc" /></g></svg>
